<svg xmlns="http://www.w3.org/2000/svg" xmlns:xlink="http://www.w3.org/1999/xlink" width="500" zoomAndPan="magnify" viewBox="0 0 375 374.999991" height="500" preserveAspectRatio="xMidYMid meet" version="1.0"><defs><g/></defs><rect x="-37.5" width="450" fill="#ffffff" y="-37.499999" height="449.999989" fill-opacity="1"/><rect x="-37.5" width="450" fill="#292929" y="-37.499999" height="449.999989" fill-opacity="1"/><g fill="#e4e2dd" fill-opacity="1"><g transform="translate(60.888172, 191.542562)"><g><path d="M 31.515625 -24.0625 C 34.085938 -21.238281 35.375 -17.789062 35.375 -13.71875 C 35.375 -9.644531 34.085938 -6.207031 31.515625 -3.40625 C 28.941406 -0.601562 25.671875 0.796875 21.703125 0.796875 C 18.054688 0.796875 15.054688 -0.503906 12.703125 -3.109375 L 12.59375 -3.109375 L 12.59375 0 L 3.21875 0 L 3.21875 -46.09375 L 12.703125 -46.09375 L 12.703125 -24.875 C 15.054688 -27.15625 18.054688 -28.296875 21.703125 -28.296875 C 25.671875 -28.296875 28.941406 -26.882812 31.515625 -24.0625 Z M 23.53125 -9.078125 C 24.707031 -10.273438 25.296875 -11.820312 25.296875 -13.71875 C 25.296875 -15.613281 24.675781 -17.164062 23.4375 -18.375 C 22.207031 -19.59375 20.679688 -20.203125 18.859375 -20.203125 C 17.078125 -20.203125 15.566406 -19.59375 14.328125 -18.375 C 13.097656 -17.164062 12.484375 -15.613281 12.484375 -13.71875 C 12.484375 -11.863281 13.082031 -10.328125 14.28125 -9.109375 C 15.476562 -7.890625 17.003906 -7.28125 18.859375 -7.28125 C 20.796875 -7.28125 22.351562 -7.878906 23.53125 -9.078125 Z M 23.53125 -9.078125 "/></g></g></g><g fill="#e4e2dd" fill-opacity="1"><g transform="translate(92.934013, 191.542562)"><g><path d="M 3.21875 0 L 3.21875 -27.5 L 12.703125 -27.5 L 12.703125 -23.53125 L 12.8125 -23.53125 C 12.882812 -23.664062 13 -23.84375 13.15625 -24.0625 C 13.3125 -24.28125 13.65625 -24.65625 14.1875 -25.1875 C 14.726562 -25.726562 15.300781 -26.210938 15.90625 -26.640625 C 16.519531 -27.066406 17.304688 -27.445312 18.265625 -27.78125 C 19.234375 -28.125 20.21875 -28.296875 21.21875 -28.296875 C 22.257812 -28.296875 23.28125 -28.148438 24.28125 -27.859375 C 25.28125 -27.578125 26.007812 -27.296875 26.46875 -27.015625 L 27.21875 -26.578125 L 23.265625 -18.546875 C 22.078125 -19.546875 20.429688 -20.046875 18.328125 -20.046875 C 17.179688 -20.046875 16.195312 -19.796875 15.375 -19.296875 C 14.5625 -18.796875 13.984375 -18.1875 13.640625 -17.46875 C 13.296875 -16.757812 13.050781 -16.15625 12.90625 -15.65625 C 12.769531 -15.15625 12.703125 -14.757812 12.703125 -14.46875 L 12.703125 0 Z M 3.21875 0 "/></g></g></g><g fill="#e4e2dd" fill-opacity="1"><g transform="translate(115.065747, 191.542562)"><g><path d="M 5.8125 -3.265625 C 2.757812 -5.984375 1.234375 -9.46875 1.234375 -13.71875 C 1.234375 -17.96875 2.820312 -21.457031 6 -24.1875 C 9.175781 -26.925781 13.109375 -28.296875 17.796875 -28.296875 C 22.398438 -28.296875 26.28125 -26.921875 29.4375 -24.171875 C 32.601562 -21.421875 34.1875 -17.9375 34.1875 -13.71875 C 34.1875 -9.5 32.640625 -6.023438 29.546875 -3.296875 C 26.460938 -0.566406 22.546875 0.796875 17.796875 0.796875 C 12.859375 0.796875 8.863281 -0.554688 5.8125 -3.265625 Z M 13.15625 -18.375 C 11.925781 -17.164062 11.3125 -15.613281 11.3125 -13.71875 C 11.3125 -11.820312 11.898438 -10.273438 13.078125 -9.078125 C 14.253906 -7.878906 15.804688 -7.28125 17.734375 -7.28125 C 19.597656 -7.28125 21.125 -7.890625 22.3125 -9.109375 C 23.507812 -10.328125 24.109375 -11.863281 24.109375 -13.71875 C 24.109375 -15.613281 23.492188 -17.164062 22.265625 -18.375 C 21.035156 -19.59375 19.523438 -20.203125 17.734375 -20.203125 C 15.910156 -20.203125 14.382812 -19.59375 13.15625 -18.375 Z M 13.15625 -18.375 "/></g></g></g><g fill="#e4e2dd" fill-opacity="1"><g transform="translate(145.932617, 191.542562)"><g><path d="M 5.09375 -3.40625 C 2.519531 -6.207031 1.234375 -9.644531 1.234375 -13.71875 C 1.234375 -17.789062 2.519531 -21.238281 5.09375 -24.0625 C 7.664062 -26.882812 10.9375 -28.296875 14.90625 -28.296875 C 18.539062 -28.296875 21.539062 -27.15625 23.90625 -24.875 L 23.90625 -46.09375 L 33.390625 -46.09375 L 33.390625 0 L 24.015625 0 L 24.015625 -3.109375 L 23.90625 -3.109375 C 21.539062 -0.503906 18.539062 0.796875 14.90625 0.796875 C 10.9375 0.796875 7.664062 -0.601562 5.09375 -3.40625 Z M 13.15625 -18.375 C 11.925781 -17.164062 11.3125 -15.613281 11.3125 -13.71875 C 11.3125 -11.820312 11.898438 -10.273438 13.078125 -9.078125 C 14.253906 -7.878906 15.804688 -7.28125 17.734375 -7.28125 C 19.597656 -7.28125 21.125 -7.890625 22.3125 -9.109375 C 23.507812 -10.328125 24.109375 -11.863281 24.109375 -13.71875 C 24.109375 -15.613281 23.492188 -17.164062 22.265625 -18.375 C 21.035156 -19.59375 19.523438 -20.203125 17.734375 -20.203125 C 15.910156 -20.203125 14.382812 -19.59375 13.15625 -18.375 Z M 13.15625 -18.375 "/></g></g></g><g fill="#e4e2dd" fill-opacity="1"><g transform="translate(177.978458, 191.542562)"><g><path d="M 12.171875 -27.5 L 12.171875 -14.421875 C 12.171875 -11.703125 12.578125 -9.769531 13.390625 -8.625 C 14.210938 -7.476562 15.609375 -6.90625 17.578125 -6.90625 C 19.546875 -6.90625 20.9375 -7.476562 21.75 -8.625 C 22.570312 -9.769531 22.984375 -11.703125 22.984375 -14.421875 L 22.984375 -27.5 L 32.484375 -27.5 L 32.484375 -12.109375 C 32.484375 -7.535156 31.289062 -4.238281 28.90625 -2.21875 C 26.53125 -0.207031 22.753906 0.796875 17.578125 0.796875 C 12.398438 0.796875 8.617188 -0.207031 6.234375 -2.21875 C 3.859375 -4.238281 2.671875 -7.535156 2.671875 -12.109375 L 2.671875 -27.5 Z M 12.171875 -27.5 "/></g></g></g><g fill="#e4e2dd" fill-opacity="1"><g transform="translate(208.577371, 191.542562)"><g><path d="M 17.84375 -20.53125 C 16.0625 -20.53125 14.523438 -19.867188 13.234375 -18.546875 C 11.953125 -17.222656 11.3125 -15.632812 11.3125 -13.78125 C 11.3125 -11.882812 11.953125 -10.273438 13.234375 -8.953125 C 14.523438 -7.628906 16.0625 -6.96875 17.84375 -6.96875 C 18.707031 -6.96875 19.519531 -7.070312 20.28125 -7.28125 C 21.050781 -7.5 21.613281 -7.71875 21.96875 -7.9375 L 22.453125 -8.25 L 25.671875 -1.65625 C 25.421875 -1.476562 25.070312 -1.253906 24.625 -0.984375 C 24.175781 -0.722656 23.15625 -0.363281 21.5625 0.09375 C 19.976562 0.5625 18.273438 0.796875 16.453125 0.796875 C 12.410156 0.796875 8.863281 -0.617188 5.8125 -3.453125 C 2.757812 -6.296875 1.234375 -9.703125 1.234375 -13.671875 C 1.234375 -17.671875 2.757812 -21.109375 5.8125 -23.984375 C 8.863281 -26.859375 12.410156 -28.296875 16.453125 -28.296875 C 18.273438 -28.296875 19.953125 -28.082031 21.484375 -27.65625 C 23.023438 -27.226562 24.117188 -26.800781 24.765625 -26.375 L 25.671875 -25.71875 L 22.453125 -19.234375 C 21.273438 -20.097656 19.738281 -20.53125 17.84375 -20.53125 Z M 17.84375 -20.53125 "/></g></g></g><g fill="#e4e2dd" fill-opacity="1"><g transform="translate(230.333961, 191.542562)"><g><path d="M 4.828125 -27.5 L 4.828125 -37.734375 L 14.3125 -37.734375 L 14.3125 -27.5 L 20.09375 -27.5 L 20.09375 -20.265625 L 14.3125 -20.265625 L 14.3125 -11.515625 C 14.3125 -8.984375 15.023438 -7.71875 16.453125 -7.71875 C 16.804688 -7.71875 17.179688 -7.785156 17.578125 -7.921875 C 17.972656 -8.066406 18.273438 -8.210938 18.484375 -8.359375 L 18.8125 -8.578125 L 21.171875 -0.90625 C 19.128906 0.226562 16.804688 0.796875 14.203125 0.796875 C 12.410156 0.796875 10.867188 0.484375 9.578125 -0.140625 C 8.296875 -0.765625 7.328125 -1.601562 6.671875 -2.65625 C 6.015625 -3.707031 5.539062 -4.8125 5.25 -5.96875 C 4.96875 -7.132812 4.828125 -8.378906 4.828125 -9.703125 L 4.828125 -20.265625 L 0.859375 -20.265625 L 0.859375 -27.5 Z M 4.828125 -27.5 "/></g></g></g><g fill="#e4e2dd" fill-opacity="1"><g transform="translate(246.945929, 191.542562)"><g><path d="M 4.125 -42.8125 C 5.226562 -43.925781 6.546875 -44.484375 8.078125 -44.484375 C 9.617188 -44.484375 10.941406 -43.925781 12.046875 -42.8125 C 13.160156 -41.707031 13.71875 -40.382812 13.71875 -38.84375 C 13.71875 -37.3125 13.160156 -35.992188 12.046875 -34.890625 C 10.941406 -33.785156 9.617188 -33.234375 8.078125 -33.234375 C 6.546875 -33.234375 5.226562 -33.785156 4.125 -34.890625 C 3.019531 -35.992188 2.46875 -37.3125 2.46875 -38.84375 C 2.46875 -40.382812 3.019531 -41.707031 4.125 -42.8125 Z M 3.21875 -27.5 L 3.21875 0 L 12.703125 0 L 12.703125 -27.5 Z M 3.21875 -27.5 "/></g></g></g><g fill="#e4e2dd" fill-opacity="1"><g transform="translate(258.574064, 191.542562)"><g><path d="M 10.1875 -27.5 L 16.875 -12.546875 L 23.578125 -27.5 L 34.828125 -27.5 L 20.09375 0 L 13.671875 0 L -1.078125 -27.5 Z M 10.1875 -27.5 "/></g></g></g><g fill="#e4e2dd" fill-opacity="1"><g transform="translate(287.779659, 191.542562)"><g><path d="M 31.03125 -12.4375 L 11.09375 -12.4375 C 11.09375 -10.507812 11.71875 -9.078125 12.96875 -8.140625 C 14.21875 -7.210938 15.578125 -6.75 17.046875 -6.75 C 18.578125 -6.75 19.789062 -6.953125 20.6875 -7.359375 C 21.582031 -7.773438 22.597656 -8.59375 23.734375 -9.8125 L 30.609375 -6.375 C 27.742188 -1.59375 22.988281 0.796875 16.34375 0.796875 C 12.195312 0.796875 8.640625 -0.617188 5.671875 -3.453125 C 2.710938 -6.296875 1.234375 -9.71875 1.234375 -13.71875 C 1.234375 -17.71875 2.710938 -21.144531 5.671875 -24 C 8.640625 -26.863281 12.195312 -28.296875 16.34375 -28.296875 C 20.707031 -28.296875 24.253906 -27.035156 26.984375 -24.515625 C 29.710938 -21.992188 31.078125 -18.394531 31.078125 -13.71875 C 31.078125 -13.070312 31.0625 -12.644531 31.03125 -12.4375 Z M 11.359375 -17.6875 L 21.8125 -17.6875 C 21.59375 -19.113281 21.023438 -20.210938 20.109375 -20.984375 C 19.203125 -21.753906 18.035156 -22.140625 16.609375 -22.140625 C 15.035156 -22.140625 13.785156 -21.726562 12.859375 -20.90625 C 11.929688 -20.082031 11.429688 -19.007812 11.359375 -17.6875 Z M 11.359375 -17.6875 "/></g></g></g><path stroke-linecap="butt" transform="matrix(0.75, 0, 0, 0.75, 31.682321, 205.683164)" fill="none" stroke-linejoin="miter" d="M 0.00169756 5.000573 L 84.433995 5.000573 " stroke="#e4e2dd" stroke-width="10" stroke-opacity="1" stroke-miterlimit="4"/><path stroke-linecap="butt" transform="matrix(0, 0.75, -0.75, 0, 39.178475, 149.089473)" fill="none" stroke-linejoin="miter" d="M 0.000493787 4.998383 L 82.464041 4.998383 " stroke="#e4e2dd" stroke-width="10" stroke-opacity="1" stroke-miterlimit="4"/><path stroke-linecap="butt" transform="matrix(-0.75, 0, 0, -0.75, 347.013791, 143.967135)" fill="none" stroke-linejoin="miter" d="M -0.00244598 4.997846 L 84.43506 4.997846 " stroke="#e4e2dd" stroke-width="10" stroke-opacity="1" stroke-miterlimit="4"/><path stroke-linecap="butt" transform="matrix(0, -0.75, 0.75, 0, 339.517657, 200.560811)" fill="none" stroke-linejoin="miter" d="M -0.00225223 5.002499 L 82.461295 5.002499 " stroke="#e4e2dd" stroke-width="10" stroke-opacity="1" stroke-miterlimit="4"/></svg>